# xmcd
#
# Track frame offsets:
#	150
#	12641
#	24981
#	37778
#	49731
#	63531
#	72268
#	84426
#	95530
#	107603
#	119016
#	131572
#	145507
#	157929
#	170099
#	179741
#	192489
#	205312
#	217956
#	230172
#
# Disc length: 3238
#
# Revision: 2
# Processed by: cddbd v1.5.1PL0 Copyright (c) Steve Scherf et al.
# Submitted via: audiograbber 1.80.04
# Normalized: r1:DSETVAR1
#
DISCID=210ca414
DTITLE=Various Artist - The History Of Country and Western Music - Vol. 11
DYEAR=46
DGENRE=Country
TTITLE0=Jimmy Wyble - Goodbye My Heart
TTITLE1=JJmmie Widener - I'll Be Satisfied
TTITLE2=Johnny Bond - Twilight On The Trail
TTITLE3=Floyd Tillman - Drivin' Nails In My Coffin
TTITLE4=Bob Wills - Faded Love
TTITLE5=Johnny Bond - Out On The Open Range
TTITLE6=Spade Cooley - Yodeling Polka
TTITLE7=Hank Penny - I'm Gonna Change
TTITLE8=Merle Travis - No Vacancy
TTITLE9=Johnny Bond - Tomorrow Never Comes
TTITLE10=Molly O'Day - The Tramp On The Street
TTITLE11=Bill Monroe - Blue Moon Of Kentucky
TTITLE12=Bob Wills - Brain Cloudy Blues
TTITLE13=Hank Penny - Get Yourself A Red Head
TTITLE14=Gene Autry - Sioux City Sue
TTITLE15=Elmer Christian - A Rainy Sunday Night
TTITLE16=Hank Penny - Time Will Tell
TTITLE17=Molly O'Day - When God Comes
TTITLE18=Merle Travis - Missouri
TTITLE19=Ben Christian - Wyble, Jimmy
EXTD=
EXTT0=
EXTT1=
EXTT2=
EXTT3=
EXTT4=
EXTT5=
EXTT6=
EXTT7=
EXTT8=
EXTT9=
EXTT10=
EXTT11=
EXTT12=
EXTT13=
EXTT14=
EXTT15=
EXTT16=
EXTT17=
EXTT18=
EXTT19=
PLAYORDER=
